<svg width="670" height="379" viewBox="0 0 670 379" fill="none" xmlns="http://www.w3.org/2000/svg">
<path d="M283.642 195.531C283.642 203.815 276.702 210.531 268.142 210.531C259.581 210.531 252.642 203.815 252.642 195.531C252.642 187.246 259.581 180.531 268.142 180.531C276.702 180.531 283.642 187.246 283.642 195.531Z" fill="#570301"/>
<path d="M422.642 195.531C422.642 203.815 415.702 210.531 407.142 210.531C398.581 210.531 391.642 203.815 391.642 195.531C391.642 187.246 398.581 180.531 407.142 180.531C415.702 180.531 422.642 187.246 422.642 195.531Z" fill="#570301"/>
<path d="M323.762 197.566C323.361 195.562 322.18 193.798 320.479 192.664C318.778 191.531 316.697 191.119 314.692 191.52C312.687 191.921 310.924 193.101 309.79 194.802C308.656 196.503 308.244 198.585 308.645 200.59C308.645 200.59 308.645 200.59 308.645 200.59C309.032 202.518 309.47 204.456 310.024 206.456C310.589 208.469 311.232 210.518 312.274 212.794C313.547 214.976 314.048 217.954 319.777 220.838C319.988 220.924 320.205 221.004 320.425 221.078C326.889 223.151 332.78 223.38 338.593 223.14C341.5 222.991 344.373 222.666 347.309 222.082C348.782 221.784 350.268 221.427 351.87 220.91C352.652 220.656 353.517 220.344 354.442 219.931C355.415 219.455 356.371 219.127 358.192 217.581C358.57 217.243 359.078 216.737 359.552 216.103C361.4 213.654 362.576 210.705 363.101 207.983C363.372 206.618 363.5 205.299 363.558 204.117C363.587 203.529 363.599 202.97 363.606 202.516C363.61 202.29 363.614 202.091 363.616 201.964C363.615 201.849 363.627 201.766 363.584 202.02C363.556 202.156 363.526 202.386 363.348 202.926C363.362 202.883 363.372 202.85 363.383 202.813C363.391 202.788 363.398 202.765 363.406 202.74C363.409 202.732 363.418 202.704 363.434 202.653C363.443 202.624 363.452 202.595 363.48 202.503C363.487 202.478 363.465 202.557 363.515 202.385C363.537 202.303 363.562 202.231 363.634 201.909C363.669 201.712 363.733 201.568 363.801 200.728C363.768 200.216 364.065 199.794 363.315 197.441C362.911 196.355 361.683 193.848 358.429 192.713C355.155 191.652 352.706 192.881 351.733 193.481C349.727 194.859 349.695 195.371 349.358 195.75C349.112 196.115 349.013 196.303 348.929 196.454C348.775 196.743 348.724 196.861 348.678 196.962C348.594 197.149 348.57 197.213 348.546 197.272C348.503 197.378 348.489 197.419 348.492 197.409C348.488 197.422 348.484 197.432 348.48 197.441C348.473 197.46 348.468 197.474 348.464 197.486C348.39 197.694 348.395 197.686 348.367 197.769C348.322 197.904 348.282 198.026 348.237 198.159C348.151 198.415 348.063 198.673 347.973 198.929C347.796 199.438 347.613 199.942 347.428 200.426C347.083 201.349 346.599 202.426 346.472 202.628C346.464 202.643 346.455 202.657 346.446 202.671C346.671 203.252 341.554 204.966 335.504 205.785L337.129 205.657C337.006 205.653 336.883 205.649 336.761 205.644C331.026 205.434 326.688 204.442 322.576 201.805C322.429 201.713 322.282 201.619 322.133 201.522L323.412 202.555C323.406 202.55 323.401 202.544 323.395 202.538C323.022 202.178 322.367 201.32 321.464 200.024C320.268 198.327 318.464 197.138 316.417 196.739C314.37 196.339 312.254 196.759 310.527 197.91C308.801 199.061 307.599 200.853 307.181 202.896C306.762 204.939 307.166 207.062 308.272 208.819C308.272 208.819 308.272 208.819 308.272 208.819C309.114 210.136 310.208 211.92 312.058 213.798C312.088 213.828 312.118 213.858 312.148 213.888L313.427 214.921C313.651 215.066 313.876 215.21 314.104 215.352C320.725 219.713 329.348 221.344 336.276 221.422C336.431 221.426 336.586 221.43 336.742 221.433L338.367 221.304C343.571 219.869 351.867 220.822 359.376 211.415C359.547 211.161 359.713 210.902 359.872 210.636C360.951 208.773 361.401 207.627 361.966 206.338C362.233 205.71 362.486 205.096 362.729 204.487C362.852 204.18 362.972 203.875 363.09 203.571C363.151 203.414 363.207 203.267 363.266 203.114C363.287 203.058 363.346 202.902 363.322 202.972C363.319 202.981 363.315 202.991 363.309 203.007C363.306 203.015 363.303 203.024 363.298 203.035C363.301 203.027 363.289 203.062 363.247 203.166C363.224 203.223 363.2 203.287 363.117 203.473C363.07 203.573 363.02 203.691 362.866 203.98C362.782 204.132 362.683 204.319 362.437 204.684C362.1 205.063 362.068 205.575 360.062 206.953C359.089 207.553 356.64 208.782 353.366 207.721C350.112 206.585 348.884 204.079 348.481 202.993C347.73 200.64 348.027 200.218 347.994 199.706C348.062 198.866 348.126 198.722 348.161 198.526C348.233 198.204 348.258 198.134 348.28 198.052C348.328 197.884 348.306 197.962 348.313 197.938C348.34 197.85 348.347 197.827 348.354 197.807C348.365 197.77 348.363 197.777 348.362 197.777C348.361 197.781 348.356 197.794 348.349 197.813C348.339 197.84 348.328 197.872 348.313 197.915C348.066 198.662 347.988 199.124 347.923 199.485C347.72 200.826 347.737 201.217 347.686 201.713C347.648 202.167 347.612 202.52 347.568 202.84C347.481 203.474 347.368 203.963 347.234 204.378C346.961 205.207 346.652 205.673 346.298 206.137C346.632 205.692 346.937 205.398 347.123 205.23C347.582 204.83 347.705 204.791 347.744 204.763C347.776 204.746 347.712 204.785 347.603 204.836C347.393 204.937 347.012 205.092 346.618 205.231C345.798 205.523 344.809 205.808 343.796 206.058C341.758 206.559 339.565 206.942 337.391 207.179C333.069 207.655 328.553 207.535 325.3 206.453C325.399 206.486 325.494 206.521 325.584 206.557C326.862 207.135 326.897 207.5 326.836 207.361C326.749 207.25 326.5 206.837 326.266 206.324C325.781 205.277 325.295 203.838 324.878 202.332C324.459 200.824 324.092 199.217 323.762 197.566Z" fill="#570301"/>
<path d="M407.884 109.491C406.089 111.039 404.983 113.235 404.808 115.598C404.633 117.961 405.404 120.297 406.951 122.092C408.498 123.886 410.695 124.993 413.058 125.168C415.421 125.342 417.757 124.571 419.551 123.024C419.551 123.024 419.551 123.024 419.551 123.024C422.112 120.817 424.636 118.608 427.16 116.358C433.54 110.703 439.754 104.748 445.773 99.2505C445.834 99.1942 445.896 99.138 445.958 99.0817C454.313 91.562 463.087 83.7654 471.487 78.2649C471.61 78.1874 471.729 78.1104 471.844 78.0344C472.874 77.3723 473.453 76.864 473.629 76.7121C473.687 76.6438 473.687 76.6721 473.089 76.9511C472.772 77.0844 472.295 77.3129 471.274 77.4969C470.299 77.6773 468.426 77.7299 466.584 76.8855C465.152 76.247 464.124 75.2601 463.554 74.5302C463.288 74.1241 463.674 74.6734 464.132 76.4197C464.393 77.2956 464.67 78.4394 465.404 80.1319C466.105 81.7315 467.638 84.4659 470.695 86.2416C470.725 86.2594 470.756 86.2772 470.787 86.2948C484.41 92.4792 492.937 86.8313 500.366 84.1913C500.441 84.1584 500.516 84.1251 500.591 84.0916C510.282 79.4192 516.068 72.4014 520.468 63.9002C520.492 63.8512 520.515 63.8022 520.538 63.7532C522.971 57.5659 521.248 54.3001 520.019 51.302C520.011 51.2853 520.003 51.2686 519.995 51.2519C517.138 45.2793 511.036 42.6137 507.322 41.7371C503.383 40.7504 500.096 40.6106 497.686 40.2957C497.59 40.2836 497.493 40.2717 497.396 40.2602C489.273 39.4956 480.939 39.4331 471.766 44.7147C471.686 44.7647 471.606 44.8155 471.527 44.8669C467.926 47.194 465.708 50.6675 464.62 53.8794C464.602 53.9345 464.583 53.9896 464.565 54.0445C463.327 58.4052 463.117 61.4433 464.655 66.356L465.873 68.6189C465.886 68.6361 465.899 68.6534 465.911 68.6706C467.144 70.342 468.563 71.8215 470.041 73.0756C472.116 74.837 474.291 76.1664 476.365 77.2084C476.374 77.2129 476.383 77.2174 476.392 77.2218L477.559 77.7089C479.238 78.2354 479.903 78.0529 479.833 77.4636C479.775 76.8725 479.63 75.7318 480.479 74.9575C481.844 74.6561 483.149 74.3724 484.19 74.0821C485.24 73.7827 486.004 73.4362 486.572 72.857C487.14 72.2777 487.471 71.5063 487.75 70.4505C488.02 69.4039 488.277 68.0943 488.552 66.7233C488.552 66.7233 488.552 66.7233 488.552 66.7233C488.341 64.8976 486.905 62.9485 485.439 61.8646C483.966 60.7684 483.15 60.3448 483.417 60.3919L484.584 60.879C484.579 60.8763 484.574 60.8737 484.569 60.8712C483.383 60.2772 482.422 59.6939 481.692 59.1147C481.171 58.701 480.766 58.2947 480.445 57.8735C480.442 57.8691 480.439 57.8648 480.435 57.8604L481.654 60.1233C481.799 60.5937 481.689 60.3211 481.704 60.1013C481.696 59.8694 481.765 59.5714 481.732 59.6858C481.731 59.6889 481.73 59.6923 481.728 59.696C481.816 59.4143 481.78 59.6459 481.306 59.958C481.295 59.9646 481.285 59.9711 481.275 59.9776C483.912 58.2402 489.975 57.4807 495.239 58.1748C495.303 58.1825 495.366 58.1904 495.429 58.1984C498.708 58.5878 501.183 58.789 502.816 59.2279C503.612 59.4281 504.101 59.6728 504.156 59.7186C504.226 59.7873 503.881 59.4766 503.795 59.258C503.794 59.2569 503.794 59.2557 503.793 59.2545C503.758 59.1661 503.74 59.187 503.679 58.8221C503.648 58.4852 503.502 57.5884 504.177 56.0805C504.189 56.056 504.201 56.0315 504.213 56.0069C501.859 60.8765 497.213 65.925 493.2 67.7077C493.17 67.7215 493.14 67.735 493.11 67.7484C487.178 70.7253 479.91 71.866 479.599 71.0038C479.597 71.003 479.596 71.0022 479.595 71.0014C480.286 71.3979 480.855 71.9652 481.145 72.3521C481.444 72.7474 481.525 72.9558 481.537 72.9766C481.543 73.0166 481.336 72.4151 481.098 71.5587C480.57 69.8539 479.921 66.8454 477.398 63.584C476.683 62.6701 475.474 61.5264 473.829 60.7926C471.716 59.8246 469.535 59.8646 468.268 60.0964C466.955 60.3314 466.2 60.6655 465.614 60.9236C464.479 61.4556 463.983 61.8096 463.552 62.0765C462.753 62.5977 462.394 62.8167 462.416 62.7781C462.245 62.8788 462.074 62.9828 461.903 63.0907C451.056 70.2523 442.718 78.0127 433.947 85.8525C433.882 85.9118 433.817 85.9711 433.752 86.0304C427.375 91.8594 421.461 97.5326 415.271 103.019C412.827 105.198 410.378 107.341 407.884 109.491Z" fill="#570301"/>
<path d="M281.68 122.675C281.965 125.1 283.201 127.313 285.117 128.826C287.034 130.34 289.473 131.03 291.898 130.745C294.323 130.46 296.535 129.223 298.049 127.307C299.562 125.391 300.252 122.952 299.967 120.527C299.967 120.527 299.967 120.527 299.967 120.527C299.256 114.471 298.371 108.347 297.191 102.264C296.556 98.9432 295.82 95.6738 295.286 92.7827C295.263 92.6549 295.24 92.5278 295.217 92.4012C293.84 82.8708 288.217 73.114 284.286 66.9443C284.173 66.7541 284.062 66.5656 283.954 66.3784C278.852 57.6732 272.342 51.6868 266.755 45.7754C266.496 45.5076 266.234 45.2373 265.968 44.9628C259.841 38.4114 251.07 34.2506 244.321 31.8262C243.882 31.6577 243.451 31.4921 243.039 31.3318C235.354 28.2757 226.92 28.0024 222.012 27.2962C221.671 27.2399 221.399 27.1782 221.307 27.1491C221.396 27.1722 221.525 27.2026 221.823 27.3127C222.196 27.4782 222.56 27.5278 223.791 28.4155C224.258 28.7723 225.326 29.646 226.183 31.1862C227.11 32.6204 227.633 35.7146 227.152 37.4903C226.755 39.3684 225.981 40.476 225.572 41.0418C225.337 41.3584 225.12 41.6076 224.926 41.8126C224.752 41.9965 224.625 42.1174 224.497 42.2355C223.97 42.7054 223.779 42.8108 223.618 42.9224C223.483 43.0104 223.429 43.0401 223.416 43.0494C223.394 43.0649 223.511 43.0093 223.669 42.943C224.343 42.6561 225.513 42.2298 226.696 41.7982C227.905 41.3543 229.204 40.8832 230.695 40.2449C231.445 39.9198 232.25 39.5578 233.239 39.0131C234.272 38.3284 235.313 38.1669 237.747 35.2519C238.485 34.2749 239.132 33.1064 239.572 31.8496C241.105 27.3943 239.921 23.3982 238.365 20.7637C238.078 20.2772 237.774 19.8083 237.448 19.3491C227.861 8.58523 220.814 9.66873 215.417 6.43381C215.184 6.32604 214.949 6.2175 214.708 6.10665C207.416 2.27975 196.577 -0.089375 188.2 0.00802819C187.958 0.00368351 187.721 0.00289944 187.478 0.00576021C182.16 -0.149881 176.285 2.88812 173.755 4.67236C173.562 4.79476 173.372 4.92074 173.184 5.05017C168.363 8.27418 166.058 13.8507 165.492 17.8186C164.851 21.9385 165.185 25.3786 165.708 28.5831C166.94 35.0485 168.551 40.105 172.23 46.3979C172.61 46.9977 173.029 47.5704 173.479 48.1085C180.466 55.1778 185.377 54.4267 188.207 55.7499C188.572 55.863 188.934 55.9678 189.299 56.0656C197.551 58.2355 205.973 57.0167 213.429 52.6231C213.613 52.5104 213.803 52.3934 213.995 52.2739C218.119 49.8317 223.44 45.4669 226.441 40.0038C226.642 39.6534 226.825 39.3015 226.989 38.9587C229.989 31.3762 228.557 27.5399 227.677 23.1224C227.624 22.9215 227.567 22.7218 227.508 22.5235C222.531 8.68627 210.815 7.30656 207.062 4.76931C206.877 4.6731 206.691 4.57905 206.505 4.48716C196.976 -0.170284 187.968 1.57621 181.856 1.94007C181.731 1.9504 181.605 1.96211 181.48 1.97519C175.864 2.33766 170.612 6.80054 168.697 10.3044C166.536 13.8792 165.755 17.1043 165.176 19.7591C165.13 19.9738 165.088 20.1892 165.051 20.4022C164.834 21.6485 164.753 22.8581 164.785 24.0595C164.862 26.9719 165.627 29.9058 167.113 32.5381C167.189 32.6735 167.266 32.8061 167.344 32.936C170.451 37.6469 176.087 35.1186 177.839 36.595C177.863 36.6138 177.887 36.6334 177.91 36.6536C179.337 37.8992 180.667 39.2005 182.1 40.6396C182.947 41.4868 184.096 41.9628 185.295 41.9628C186.493 41.9628 187.642 41.4868 188.489 40.6396C189.336 39.7924 189.812 38.6434 189.812 37.4452C189.812 36.2471 189.336 35.098 188.489 34.2508C188.489 34.2508 188.489 34.2508 188.489 34.2508C187.062 32.8173 185.493 31.2784 183.864 29.8579C183.838 29.8348 183.812 29.811 183.787 29.7864C181.937 28.0927 183.665 22.5492 184.272 23.0931C184.283 23.1075 184.295 23.1243 184.308 23.1435C184.454 23.3278 184.503 23.4838 184.517 23.6087C184.523 23.666 184.525 23.7276 184.507 23.8463C184.503 23.8667 184.499 23.8891 184.495 23.9136C184.855 22.1768 185.342 20.9973 185.545 20.7171C185.629 20.5816 185.562 20.7699 185.133 21.0859C184.723 21.4059 183.942 21.6873 183.516 21.7162C183.495 21.7185 183.476 21.7205 183.457 21.7222C190.317 21.1261 195.181 20.9601 197.669 22.4042C197.731 22.4349 197.794 22.4667 197.857 22.4996C201.708 24.443 204.555 25.4962 206.412 26.6215C207.326 27.1552 207.906 27.6349 208.141 27.8929C208.381 28.1673 208.33 28.1322 208.373 28.234C208.375 28.2411 208.378 28.249 208.38 28.2579C208.581 28.9993 208.723 29.9449 208.737 30.5257C208.747 30.817 208.727 31.0264 208.723 31.0444C208.725 31.0636 208.728 30.8721 208.963 30.3669C209.006 30.2754 209.059 30.1734 209.122 30.0644C207.94 32.0743 206.565 33.4109 203.439 35.3653C203.29 35.4587 203.136 35.5547 202.979 35.6521C200.696 37.059 197.029 37.7878 194.28 37.0368C194.148 37.0049 194.017 36.9707 193.883 36.9335C191.769 36.3223 189.942 35.9055 188.801 35.5429C188.237 35.3692 187.865 35.2118 187.79 35.181C187.703 35.1458 187.962 35.2921 188.271 35.6691C188.361 35.7782 188.45 35.901 188.528 36.0265C186.981 33.5751 185.185 28.8477 184.569 25.3031C184.231 23.4938 184.175 21.7785 184.329 20.8565C184.396 20.398 184.502 20.1854 184.469 20.2489C184.449 20.3031 184.211 20.6048 184.003 20.7355C183.987 20.7466 183.972 20.757 183.957 20.7665C186.608 19.099 186.654 19.3057 187.679 19.2176C187.726 19.2175 187.774 19.218 187.826 19.2193C195.107 19.4038 199.93 20.3568 206.626 23.6336C206.859 23.7412 207.094 23.8499 207.335 23.9609C214.2 26.9886 222.34 30.0811 221.714 30.5276C221.722 30.5396 221.729 30.5499 221.736 30.5631C221.229 29.6966 220.527 27.9219 221.356 25.4431C221.593 24.7637 221.945 24.1365 222.315 23.6489C223.159 22.5747 223.534 22.3988 223.7 22.2581C223.878 22.1333 223.878 22.1459 223.826 22.1759C223.709 22.248 223.352 22.4308 222.947 22.6142C222.118 22.9927 221.04 23.4251 219.879 23.8845C218.697 24.3573 217.483 24.8116 215.839 25.5588C215.413 25.7561 214.954 25.9746 214.383 26.2857C213.75 26.661 213.183 26.874 211.712 28.1505C211.525 28.3217 211.349 28.4899 211.12 28.7315C210.866 29.0004 210.596 29.3128 210.314 29.6919C209.818 30.3726 208.956 31.6374 208.53 33.6631C208.015 35.5837 208.568 38.859 209.57 40.4197C210.494 42.0864 211.704 43.0983 212.277 43.5332C215.082 45.4281 215.591 45.1861 216.526 45.5239C217.485 45.7673 218.276 45.9071 219.005 46.0232C226.955 46.9798 231.746 47.1597 236.245 48.9152C236.712 49.0946 237.171 49.2682 237.614 49.4358C244.267 51.8578 248.721 54.1444 252.522 58.0464C252.79 58.3206 253.053 58.59 253.313 58.8561C259.064 64.7922 264.677 70.2299 267.891 75.7966C268.029 76.0298 268.166 76.2599 268.303 76.4873C273.106 84.0899 275.932 88.8291 277.092 95.6455C277.12 95.8001 277.148 95.9542 277.176 96.1079C277.827 99.6097 278.528 102.689 279.111 105.751C280.19 111.316 281.005 116.928 281.68 122.675Z" fill="#570301"/>
<path d="M204.489 261.248C202.201 260.762 199.814 261.206 197.853 262.481C195.891 263.756 194.517 265.758 194.032 268.046C193.547 270.335 193.991 272.722 195.266 274.683C196.541 276.644 198.543 278.019 200.831 278.504C200.831 278.504 200.831 278.504 200.831 278.504C205.123 279.414 209.395 280.298 213.683 281.164C219.844 282.406 225.852 283.603 231.876 284.932C231.883 284.933 231.889 284.935 231.895 284.936C241.832 287.113 251.722 289.175 261.638 290.897C261.651 290.899 261.663 290.901 261.676 290.903C268.032 292.002 274.635 293.2 281.552 293.95C281.569 293.952 281.587 293.954 281.604 293.956C286.948 294.523 292.778 295.844 299.464 296.674C299.483 296.676 299.502 296.678 299.521 296.681C305.72 297.392 311.953 298.93 319.214 300.229C319.233 300.232 319.252 300.235 319.272 300.239C338.699 302.673 355.346 301.514 373.246 299.795C373.271 299.792 373.295 299.789 373.32 299.787C381.058 298.93 388.627 297.882 396.133 296.909C396.161 296.905 396.19 296.901 396.218 296.897C406.058 295.602 415.587 293.847 424.791 292.452C424.823 292.447 424.855 292.442 424.887 292.437C434.867 290.924 443.168 286.632 450.057 283.649C450.316 283.538 450.575 283.429 450.821 283.328C450.835 283.322 450.848 283.317 450.862 283.311L452.775 282.263C455.581 280.193 457.032 278.601 458.31 277.5C458.319 277.492 458.329 277.483 458.338 277.473C458.735 277.017 459.035 274.978 458.935 272.179C458.901 269.292 457.107 266.738 455.602 265.874C455.544 265.837 455.443 265.801 455.356 265.774C455.266 265.747 455.197 265.732 455.129 265.731C455.062 265.731 454.992 265.744 454.902 265.769C454.814 265.793 454.712 265.827 454.653 265.863C454.653 265.863 454.653 265.863 454.653 265.863C453.151 266.855 450.767 266.167 449.547 264.718C448.282 263.371 447.082 262.454 446.08 263.213C446.062 263.227 446.045 263.241 446.028 263.256C444.067 264.944 442.515 266.427 441.852 266.866L443.764 265.818C443.745 265.825 443.726 265.833 443.707 265.841C443.372 265.976 443.036 266.114 442.714 266.249C434.754 269.708 428.26 272.694 422.091 273.589C422.056 273.594 422.021 273.599 421.986 273.605C412.237 275.087 402.91 276.821 393.748 278.039C393.719 278.043 393.69 278.047 393.661 278.05C386.08 279.047 378.582 280.102 371.202 280.947C371.179 280.95 371.156 280.952 371.133 280.955C354.969 282.682 337.047 283.604 322.433 281.804C322.416 281.801 322.399 281.799 322.383 281.796C316.171 280.739 309.08 279.052 301.669 278.242C301.654 278.241 301.639 278.239 301.623 278.237C296.27 277.637 290.237 276.315 283.519 275.624C283.503 275.623 283.488 275.621 283.473 275.62C277.421 275.015 271.182 273.921 264.682 272.879C264.669 272.877 264.657 272.875 264.645 272.873C254.91 271.313 245.196 269.792 235.674 267.706C235.668 267.705 235.662 267.703 235.655 267.702C229.478 266.339 223.256 265.1 217.18 263.874C212.932 263.016 208.732 262.148 204.489 261.248Z" fill="#570301"/>
<path d="M204.705 289.517C202.829 288.266 200.532 287.811 198.321 288.254C196.109 288.696 194.164 289.999 192.913 291.875C191.662 293.751 191.208 296.048 191.65 298.26C192.092 300.471 193.395 302.416 195.272 303.667C195.272 303.667 195.272 303.667 195.272 303.667C198.883 306.071 202.474 308.481 206.219 310.895C210.924 313.903 216.215 317.227 222.381 319.471C222.389 319.474 222.397 319.477 222.405 319.48C232.42 323.127 242.181 326.462 251.273 329.963C251.286 329.968 251.3 329.974 251.314 329.979C261.457 333.664 270.405 333.651 277.789 334.852C277.792 334.853 277.795 334.853 277.798 334.854C291.233 336.732 303.333 336.475 314.763 337.642C314.769 337.642 314.775 337.643 314.781 337.644C323.763 338.596 332.622 339.183 340.932 340.302C340.945 340.304 340.959 340.305 340.973 340.307C354.309 342.223 367.854 341.962 379.563 343.036C379.576 343.038 379.588 343.039 379.601 343.04C389.899 344.398 402.735 342.523 411.123 340.533C411.135 340.53 411.147 340.528 411.159 340.526C417.492 339.381 423.535 337.818 429.306 336.381L430.639 335.941C430.644 335.939 430.65 335.936 430.655 335.934C434.686 334.254 438.383 332.495 441.9 330.978C443.424 330.32 444.911 329.706 446.359 329.164L447.243 328.78C447.245 328.778 447.248 328.777 447.25 328.776C450.622 326.982 452.006 326.053 454.33 324.801C456.503 323.605 458.104 321.589 458.783 319.203C459.463 316.817 459.165 314.255 457.957 312.083C456.748 309.91 454.728 308.307 452.343 307.626C449.957 306.945 447.4 307.241 445.238 308.457C443.058 309.662 440.09 311.461 438.93 312.065C438.929 312.065 438.928 312.065 438.928 312.066L439.812 311.682C437.967 312.373 436.202 313.104 434.497 313.84C430.571 315.539 426.942 317.262 423.487 318.697C423.482 318.699 423.477 318.701 423.473 318.703L424.805 318.263C418.928 319.73 413.321 321.131 407.833 322.121C407.823 322.123 407.813 322.125 407.803 322.127C397.236 324.452 390.54 325.444 381.404 324.495C381.39 324.493 381.375 324.492 381.36 324.49C367.601 323.304 355.464 323.61 343.451 321.884C343.436 321.882 343.421 321.88 343.406 321.878C334.15 320.655 325.319 320.105 316.678 319.205C316.671 319.204 316.664 319.203 316.657 319.203C303.807 317.972 291.378 318.148 280.632 316.651C280.629 316.651 280.625 316.65 280.621 316.649C271.495 315.372 263.398 315.103 257.705 313.057C257.69 313.051 257.674 313.046 257.658 313.04C247.513 309.379 237.546 306.903 228.279 303.519C228.273 303.517 228.267 303.515 228.261 303.513C224.075 302.006 219.945 299.497 215.421 296.592C211.894 294.32 208.311 291.918 204.705 289.517Z" fill="#570301"/>
<path d="M166.206 345.987C166.553 351.049 168.896 355.767 172.72 359.102C176.545 362.436 181.538 364.115 186.6 363.769C191.663 363.423 196.38 361.08 199.715 357.255C203.05 353.431 204.729 348.438 204.383 343.375C204.383 343.375 204.383 343.375 204.383 343.375C203.689 333.322 203.596 323.272 203.893 312.904C204.06 306.836 204.35 300.65 204.624 294.288C204.626 294.235 204.628 294.182 204.63 294.129C204.886 288.036 206.182 281.582 208.034 274.58C208.052 274.511 208.07 274.443 208.088 274.375C212.229 257.143 213.253 243.018 214.931 228.255C214.944 228.137 214.956 228.019 214.969 227.902C215.013 225.753 216.68 222.734 219.958 212.272C220.005 212.096 220.05 211.917 220.095 211.735C219.856 210.714 226.223 201.427 231.755 194.073C231.824 193.979 231.894 193.884 231.963 193.789C239.123 183.809 244.325 176.131 251.063 169.171C251.147 169.082 251.232 168.994 251.317 168.905C254.088 165.732 263.413 161.207 273.865 157.135C274.003 157.078 274.141 157.021 274.279 156.964C282.534 153.548 291.124 150.475 299.201 148.384C299.343 148.348 299.483 148.312 299.622 148.277C311.309 145.284 321.907 141.933 332.197 139.2C332.383 139.151 332.569 139.102 332.753 139.053C344.856 136.047 366.447 137.495 380.654 140.352C380.738 140.373 380.789 140.387 380.797 140.388C384.974 141.497 388.901 143.444 395.955 146.27C396.214 146.37 396.476 146.47 396.742 146.569C396.814 146.152 400.705 150.054 409.598 155.767C409.882 155.932 410.173 156.096 410.472 156.259C411.464 156.508 415.798 161.548 421.516 168.291C421.661 168.453 421.807 168.617 421.955 168.781C426.513 173.826 430.7 179.652 435.948 186.378C436.082 186.549 436.217 186.72 436.352 186.892C436.982 187.387 437.733 191.163 441.682 200.519C441.794 200.759 441.91 201.001 442.029 201.246C444.648 206.765 445.896 214.411 448.316 226.111C448.37 226.34 448.425 226.571 448.483 226.804C451.113 237.588 452.704 247.924 453.768 258.828C453.787 259.024 453.806 259.221 453.826 259.419C454.722 268.726 455.311 277.936 455.164 286.508C455.086 290.802 454.81 294.848 454.246 298.402C453.963 300.184 453.628 301.741 453.176 303.378C452.784 305.269 451.879 306.076 450.727 313.531C450.721 313.583 450.715 313.634 450.71 313.686C449.715 322.4 448.654 330.593 447.143 338.37C447.121 338.487 447.098 338.604 447.075 338.722L447.344 337.533C447.337 337.562 447.329 337.592 447.321 337.622C445.016 346.809 444.367 354.639 443.391 361.257L443.222 362.593C443.221 362.597 443.221 362.601 443.221 362.606C442.895 367.377 450.039 367.598 452.802 370.758C453.488 372.065 455.009 373.636 456.439 374.908C457.903 376.192 459.158 377.073 460.518 377.573C461.879 378.073 463.405 378.215 465.353 378.185C467.266 378.142 469.442 377.931 470.811 377.379C470.811 377.379 470.811 377.379 470.811 377.379C475.876 374.413 483.367 368.032 483.517 366.338C483.517 366.337 483.517 366.337 483.517 366.336L483.348 367.672C484.698 359.759 485.634 352.902 486.957 347.803C486.961 347.787 486.965 347.771 486.969 347.755L487.238 346.566C487.266 346.421 487.295 346.275 487.323 346.13C489.19 336.465 490.222 326.999 491.13 318.056C491.136 318.003 491.141 317.95 491.146 317.897C490.617 320.464 491.569 316.676 492.37 313.812C493.181 310.722 493.825 307.46 494.265 304.38C495.15 298.16 495.393 292.49 495.422 286.909C495.439 275.844 494.554 265.471 493.378 255.193C493.352 254.965 493.325 254.738 493.298 254.512C491.858 242.011 489.147 229.142 485.804 217.157C485.776 217.061 485.747 216.957 485.716 216.845C483.713 209.183 482.062 196.817 475.774 184.393C475.741 184.334 475.708 184.272 475.674 184.207C474.201 182.165 472.57 172.966 464.966 163.576C464.847 163.435 464.728 163.294 464.609 163.152C459.973 157.634 454.758 150.81 448.627 144.284C448.535 144.188 448.443 144.089 448.349 143.988C444.05 139.769 439.792 131.948 427.61 124.773C427.583 124.76 427.55 124.742 427.511 124.72C425.6 124.118 421.04 118.056 409.281 113.09C409.132 113.035 408.981 112.977 408.827 112.918C404.751 111.353 397.889 107.95 390.481 105.913C390.122 105.812 389.775 105.72 389.429 105.632C366.314 101.352 348.937 99.0629 323.646 104.162C323.436 104.217 323.225 104.271 323.014 104.327C311.656 107.312 300.877 110.692 290.867 113.199C290.681 113.245 290.493 113.292 290.305 113.339C279.737 116.045 270.144 119.416 260.561 123.213C260.449 123.258 260.334 123.304 260.217 123.35C250.282 127.543 237.963 130.487 224.721 142.944C224.606 143.061 224.491 143.177 224.377 143.293C215.318 152.354 207.813 163.322 201.796 171.493C201.728 171.584 201.661 171.674 201.593 171.765C196.181 179.86 189.191 185.071 183.435 202.49C183.43 202.505 183.425 202.522 183.419 202.543C183.111 204.436 178.22 212.931 176.98 223.739C176.967 223.857 176.953 223.976 176.94 224.095C175.317 238.315 173.692 253.4 170.944 264.548C170.922 264.631 170.9 264.713 170.879 264.795C168.649 273.249 166.817 282.587 166.4 292.495C166.397 292.547 166.395 292.599 166.393 292.651C166.125 298.89 165.823 305.301 165.642 311.84C165.32 323.015 165.412 334.527 166.206 345.987Z" fill="#570301"/>
<path d="M466.714 200.142C464.871 203.446 464.416 207.347 465.448 210.987C466.481 214.627 468.918 217.707 472.222 219.551C475.526 221.394 479.427 221.849 483.067 220.817C486.706 219.784 489.787 217.347 491.63 214.043C491.63 214.043 491.63 214.043 491.63 214.043C495.128 207.771 499.002 201.868 503.355 196.359C505.973 193.038 508.734 189.911 511.842 186.571C511.851 186.561 511.859 186.552 511.868 186.542C518.014 179.809 523.132 176.662 533.234 170.648C533.234 170.647 533.234 170.647 533.235 170.647C540.524 165.974 545.496 164.446 556.616 160.378C556.628 160.373 556.639 160.368 556.651 160.363C560.44 158.677 566.302 158.165 573.933 157.21C573.949 157.208 573.965 157.206 573.981 157.204C578.74 156.6 583.272 156.354 587.184 156.703C591.225 157.028 593.989 158.013 600.675 159.907C600.732 159.922 600.788 159.937 600.844 159.952C608.102 161.937 611.806 164.059 619.434 169.644C619.467 169.668 619.5 169.692 619.533 169.716C622.255 171.666 625.174 175.677 628.074 180.705C628.104 180.758 628.135 180.81 628.165 180.863C630.972 185.685 632.759 190.949 635.016 197.68C635.026 197.714 635.037 197.748 635.047 197.782C636.461 201.548 635.937 212.413 635.894 222.405C635.893 222.425 635.892 222.446 635.89 222.466C635.831 224.928 634.115 229.188 630.678 235.921C630.665 235.946 630.652 235.971 630.639 235.996C629.082 239.416 622.135 246.61 615.892 254.079C615.859 254.119 615.826 254.157 615.793 254.196C612.012 258.734 607.369 261.966 600.269 266.345C600.217 266.377 600.166 266.409 600.115 266.44C583.262 277.016 566.478 286.913 549.234 299.352C549.222 299.361 549.21 299.369 549.198 299.378C545.893 301.94 539.894 303.957 531.62 307.235C531.595 307.245 531.571 307.255 531.546 307.265C521.893 311.236 511.846 314.248 500.546 318.365L501.422 318.07C501.409 318.074 501.397 318.078 501.384 318.082C499.394 318.695 497.406 319.349 495.416 320.041C489.797 322.018 484.403 324.067 478.068 327.018L474.32 329.262C474.319 329.263 474.317 329.264 474.315 329.266C471.051 332.042 471.931 334.824 473.267 337.351C474.645 339.92 476.552 342.678 477.529 344.875C477.751 345.376 478.247 346.093 478.689 346.685C479.144 347.287 479.508 347.716 479.921 348.059C480.333 348.402 480.821 348.682 481.496 349.019C482.159 349.346 482.953 349.703 483.487 349.83C483.487 349.83 483.487 349.83 483.487 349.83C485.854 350.358 489.114 351.426 491.847 352.308C494.55 353.16 496.76 354.203 495.194 355.623C495.193 355.624 495.192 355.625 495.191 355.625L491.444 357.868C495.537 356.374 500.937 354.876 506.103 353.363C507.97 352.817 509.851 352.26 511.734 351.68C511.746 351.676 511.758 351.673 511.77 351.669L512.646 351.374C522.331 347.819 533.692 344.367 544.714 339.828C544.741 339.817 544.769 339.806 544.797 339.795C551.041 337.133 560.385 334.549 569.825 327.693C569.855 327.671 569.885 327.649 569.915 327.628C584.68 316.887 601.92 306.579 618.552 296.117C618.603 296.085 618.654 296.054 618.705 296.022C625.969 291.56 635.513 285.092 642.461 276.453C642.519 276.382 642.577 276.312 642.635 276.241C647.818 269.458 654.68 264.069 661.51 251.081C661.555 250.987 661.6 250.893 661.645 250.798C664.599 244.317 669.538 234.733 669.327 222.218C669.325 222.122 669.322 222.026 669.32 221.93C668.507 211.953 670.229 202.249 664.931 186.875C664.897 186.786 664.862 186.698 664.827 186.61C662.14 179.957 658.63 171.846 653.664 164.647C653.613 164.571 653.561 164.495 653.509 164.419C649.265 158.319 644.034 151.442 635.726 145.866C635.624 145.798 635.522 145.732 635.42 145.665C629.18 141.157 617.551 134.908 608.08 132.757C608 132.736 607.92 132.715 607.839 132.693C604.114 131.666 596.535 129.123 589.72 128.645C582.84 128.028 576.511 128.461 570.497 129.185C570.477 129.188 570.456 129.19 570.436 129.193C564.034 130.093 555.442 130.221 546.018 134.022C545.993 134.032 545.968 134.043 545.943 134.053C539.477 136.33 526.511 140.797 518.095 146.519C518.095 146.519 518.095 146.519 518.094 146.52C510.694 150.764 498.344 158.532 490.945 167.145C490.936 167.154 490.927 167.164 490.918 167.174C487.629 170.707 484.157 174.619 480.96 178.682C475.594 185.472 470.854 192.717 466.714 200.142Z" fill="#570301"/>
<path d="M179.854 235.217C182.354 238.431 186.027 240.521 190.067 241.027C194.107 241.532 198.182 240.412 201.397 237.913C204.611 235.414 206.701 231.741 207.206 227.701C207.712 223.661 206.592 219.585 204.093 216.371C204.093 216.371 204.093 216.371 204.093 216.371C199.645 210.647 195.089 204.89 190.493 199.242C188.059 196.248 185.644 193.303 183.256 190.372C183.24 190.353 183.225 190.334 183.209 190.315C178.975 185.152 174.653 179.87 168.885 174.673C163.467 169.462 154.378 164.755 150.047 162.815C150.038 162.81 150.028 162.805 150.018 162.8C144.393 160.204 137.651 155.957 126.683 154.145C126.676 154.144 126.668 154.142 126.661 154.141C118.858 153.009 108.878 150.519 98.856 149.292C98.8534 149.291 98.8507 149.291 98.8481 149.291C89.4736 148.078 79.077 147.2 67.6773 149.342C56.1117 151.536 47.0399 156.419 39.7291 159.593C39.7019 159.605 39.6747 159.618 39.6476 159.63C28.2532 164.81 19.6879 172.967 13.0609 180.747C13.0503 180.76 13.0397 180.773 13.0291 180.785C2.62788 195.114 3.92284 204.299 1.86237 210.676C1.84962 210.732 1.83697 210.788 1.82442 210.844C-1.43718 231.151 -0.339218 242.787 5.22803 262.859C5.25857 262.939 5.28934 263.02 5.32032 263.1C12.5147 278.689 19.8337 282.462 24.2316 288.377C24.275 288.428 24.3184 288.479 24.3618 288.53C33.1794 298.932 43.0812 309.008 51.8882 318.024C51.9073 318.044 51.9264 318.064 51.9455 318.083C57.5525 323.82 63.8058 333.458 72.6985 342.633C72.7311 342.667 72.7636 342.7 72.7962 342.734C83.2551 353.315 94.8545 358.012 103.918 362.145L104.192 362.263C104.214 362.273 104.237 362.282 104.259 362.292C111.027 365.158 118.126 366.377 125.07 367.275C129.653 367.812 135.399 368.64 137.815 368.766L138.239 368.989C138.246 368.991 138.252 368.993 138.258 368.995C141.292 369.939 145.043 368.042 147.952 367.239C149.081 366.926 150.416 365.993 151.513 365.025C152.619 364.034 153.396 363.088 153.825 362.015C154.255 360.942 154.344 359.722 154.227 358.242C154.1 356.784 153.777 355.187 153.175 354.182C153.175 354.182 153.175 354.182 153.175 354.182C151.564 351.573 150.792 347.858 149.472 346.616C149.469 346.613 149.466 346.611 149.463 346.608L149.887 346.831C143.861 342.693 140.569 340.437 136.327 337.554C130.496 333.616 124.807 330 118.996 327.537C118.977 327.529 118.957 327.521 118.938 327.513L119.212 327.631C110.246 323.732 103.248 320.149 99.7189 316.428C99.7071 316.416 99.6953 316.404 99.6836 316.392C93.5243 310.288 87.9976 301.84 78.7507 292.128C78.7194 292.096 78.688 292.063 78.6565 292.031C69.1441 282.411 60.6734 273.86 52.5322 264.349C52.4926 264.303 52.453 264.257 52.4133 264.211C46.0606 257.069 39.3941 249.947 39.8515 249.681C39.8515 249.681 39.8516 249.682 39.8517 249.682C37.6978 242.997 35.8234 225.902 37.449 218.645C37.4527 218.627 37.4564 218.608 37.46 218.59C38.439 213.964 38.9848 210.137 39.6215 207.268C40.1683 204.41 41.1374 202.725 40.5316 203.552C40.5304 203.553 40.5291 203.555 40.5279 203.556C45.1082 197.805 49.769 193.608 54.4345 191.319C54.4457 191.313 54.457 191.307 54.4683 191.302C71.5402 182.489 77.9524 180.617 94.6665 182.529C94.6688 182.529 94.6711 182.529 94.6734 182.53C103.191 183.4 111.29 185.517 121.934 187.022C121.943 187.023 121.952 187.024 121.96 187.026C124.317 187.2 129.515 189.584 135.965 192.607C135.976 192.612 135.987 192.617 135.999 192.622C142.763 195.585 144.76 196.221 148.562 199.011C152.14 201.658 155.917 205.429 159.408 209.711C159.424 209.73 159.439 209.749 159.455 209.768C161.878 212.742 164.295 215.689 166.665 218.606C171.133 224.096 175.488 229.599 179.854 235.217Z" fill="#570301"/>
</svg>
