<svg width="242" height="247" viewBox="0 0 242 247" fill="none" xmlns="http://www.w3.org/2000/svg">
<path d="M104.762 62.6853C163.196 61.7739 211.072 101.896 211.856 152.148C212.64 202.4 166.038 243.995 107.605 244.906C49.1713 245.818 1.29397 205.697 0.509767 155.445C-0.27414 105.192 46.3286 63.5968 104.762 62.6853Z" stroke="black"/>
<path d="M212.852 142.567C212.575 142.566 212.309 142.676 212.112 142.871C211.915 143.067 211.804 143.332 211.803 143.61C211.802 143.887 211.911 144.153 212.107 144.35C212.302 144.547 212.568 144.658 212.845 144.659C212.845 144.659 212.845 144.659 212.845 144.659C214.026 144.663 215.207 144.644 216.387 144.588C221.553 144.427 226.694 143.093 231.469 141.412C231.646 141.351 231.826 141.289 232.007 141.227C234.291 140.466 236.587 139.377 238.618 138.434C238.818 138.349 239.035 138.275 239.11 138.265C239.245 138.242 239.335 138.241 239.374 138.246C239.415 138.249 239.308 138.254 239.178 138.116C239.059 137.979 239.075 137.887 239.075 137.938C239.077 137.974 239.065 138.086 239.035 138.206C238.907 138.722 238.6 139.352 238.27 139.953C237.594 141.173 236.786 142.363 235.951 143.54C234.273 145.897 232.458 148.17 230.638 150.479C230.493 150.664 230.349 150.845 230.203 151.026C228.106 153.639 225.666 155.913 223.025 158.05L223.141 157.967C223.029 158.037 222.917 158.107 222.805 158.176C220.115 159.86 217.452 161.453 214.453 162.079L214.632 162.066C214.596 162.066 214.558 162.066 214.521 162.066C214.377 162.066 214.232 162.069 214.084 162.076C212.962 162.125 211.749 162.391 210.564 162.484C210.557 162.484 210.551 162.488 210.546 162.493C210.541 162.498 210.537 162.503 210.537 162.51C210.536 162.516 210.537 162.523 210.541 162.529C210.545 162.535 210.55 162.54 210.556 162.542C210.556 162.542 210.556 162.542 210.556 162.542C211.678 162.938 212.772 163.525 213.971 163.739C214.128 163.766 214.287 163.787 214.448 163.799C214.49 163.802 214.532 163.805 214.573 163.808L214.752 163.796C218.133 163.342 221.253 161.802 223.991 160.086C224.105 160.015 224.219 159.944 224.333 159.873L224.449 159.789C227.138 157.612 229.723 155.154 231.911 152.401C232.064 152.21 232.215 152.018 232.366 151.824C234.156 149.534 235.998 147.213 237.712 144.788C238.568 143.569 239.4 142.342 240.149 140.984C240.518 140.29 240.875 139.63 241.113 138.698C241.167 138.468 241.215 138.193 241.208 137.889C241.204 137.711 241.182 137.531 241.122 137.331C241.055 137.112 240.942 136.889 240.762 136.689C240.391 136.273 239.88 136.154 239.596 136.127C239.232 136.096 239.025 136.125 238.748 136.169C238.324 136.249 238.06 136.368 237.795 136.475C235.531 137.532 233.547 138.5 231.326 139.249C231.146 139.311 230.969 139.372 230.793 139.432C226.036 141.1 221.269 142.336 216.29 142.499C215.151 142.552 214.005 142.571 212.852 142.567Z" fill="black"/>
<path d="M14.5584 134.783C14.5344 134.543 14.4162 134.323 14.2298 134.17C14.0434 134.017 13.804 133.945 13.5643 133.969C13.3247 133.993 13.1043 134.111 12.9518 134.298C12.7993 134.484 12.727 134.724 12.751 134.963C12.751 134.963 12.751 134.963 12.751 134.963C12.7678 135.132 12.7847 135.3 12.8015 135.468C12.9543 136.937 13.0729 138.356 13.2971 139.896C13.3103 139.972 13.322 140.039 13.3469 140.142C13.3693 140.213 13.3505 140.216 13.4547 140.439C13.4662 140.46 13.4969 140.52 13.5554 140.594C13.5852 140.631 13.6232 140.674 13.6781 140.721C13.7324 140.769 13.8985 140.891 14.1132 140.927C14.6236 141.004 14.9023 140.708 14.9975 140.585C15.0836 140.469 15.0951 140.429 15.1202 140.375C15.1842 140.211 15.1784 140.181 15.1895 140.132C15.2133 139.973 15.2108 139.911 15.2137 139.827C15.2161 139.671 15.2108 139.534 15.2029 139.394C15.1948 139.255 15.1837 139.117 15.1676 138.971C15.1469 138.816 15.1451 138.702 15.0672 138.427C15.0631 138.413 15.0586 138.4 15.0538 138.386C15.0138 138.304 15.0236 138.206 14.7731 137.952C14.6519 137.822 14.2847 137.661 14.0006 137.726C13.7243 137.781 13.6181 137.884 13.5378 137.947C13.2886 138.189 13.2954 138.255 13.2372 138.347C13.1535 138.511 13.1078 138.631 13.0608 138.752C12.9701 138.992 12.8969 139.212 12.8244 139.428C12.8157 139.454 12.8069 139.48 12.7982 139.507C12.6286 140.015 12.6061 140.573 12.7307 141.18C12.7699 141.371 12.8238 141.568 12.8924 141.769C12.898 141.785 12.9043 141.801 12.9132 141.814C12.9221 141.827 12.9333 141.836 12.9466 141.841C12.9599 141.845 12.9745 141.844 12.9895 141.839C13.0044 141.834 13.0189 141.825 13.0332 141.816C13.0332 141.816 13.0332 141.816 13.0332 141.816C13.2087 141.696 13.3695 141.571 13.5157 141.442C13.9795 141.031 14.2962 140.571 14.4658 140.062C14.4746 140.036 14.4832 140.01 14.4919 139.984C14.5634 139.769 14.6325 139.558 14.7016 139.371C14.7347 139.282 14.7732 139.188 14.7928 139.151C14.7878 139.143 14.8488 139.106 14.6833 139.271C14.6254 139.315 14.543 139.402 14.2949 139.452C14.0389 139.511 13.7002 139.362 13.6001 139.251C13.3906 139.036 13.4235 138.995 13.4018 138.964C13.4002 138.959 13.3988 138.955 13.3977 138.951C13.3997 138.943 13.4306 139.258 13.4258 139.45C13.4256 139.557 13.4224 139.667 13.4158 139.757C13.4134 139.797 13.4049 139.856 13.4084 139.821C13.414 139.802 13.4022 139.803 13.4546 139.667C13.4763 139.621 13.4852 139.587 13.5664 139.477C13.6558 139.362 13.9292 139.069 14.4318 139.145C14.6431 139.18 14.8045 139.299 14.8562 139.346C14.9088 139.391 14.9445 139.431 14.972 139.465C15.026 139.533 15.0509 139.583 15.0601 139.6C15.1367 139.765 15.1052 139.715 15.1111 139.72C15.1069 139.7 15.0971 139.647 15.0882 139.593C14.8906 138.237 14.7581 136.732 14.6089 135.287C14.5921 135.119 14.5752 134.951 14.5584 134.783Z" fill="black"/>
<path d="M70.9924 139.064C71.0429 138.811 70.991 138.548 70.8479 138.333C70.7048 138.119 70.4823 137.97 70.2293 137.919C69.9764 137.869 69.7137 137.921 69.4991 138.064C69.2844 138.207 69.1354 138.429 69.0848 138.682C69.0848 138.682 69.0848 138.682 69.0848 138.682C69.0583 138.815 69.0318 138.947 69.0053 139.08C68.7043 140.546 68.4205 142.118 68.0483 143.412C68.0314 143.465 68.0236 143.525 68.0505 143.529C68.068 143.523 68.0707 143.52 68.1681 143.423C68.2288 143.383 68.2833 143.252 68.6686 143.174C68.8599 143.144 69.0855 143.202 69.2163 143.288C69.341 143.368 69.3923 143.437 69.4309 143.49C69.5404 143.674 69.4934 143.677 69.4866 143.697C69.4705 143.71 69.4478 143.703 69.4245 143.691C69.3293 143.639 69.2201 143.528 69.1192 143.423C68.9144 143.203 68.7453 142.973 68.69 142.711C68.6855 142.692 68.6793 142.668 68.6728 142.647C68.6464 142.6 68.6721 142.534 68.5133 142.457C68.3065 142.44 68.3055 142.543 68.266 142.574C68.2064 142.661 68.1731 142.738 68.1381 142.817C68.0705 142.975 68.0157 143.13 67.9614 143.287C67.9169 143.415 67.874 143.544 67.8312 143.673C67.8196 143.708 67.8223 143.746 67.8387 143.778C67.8552 143.811 67.884 143.836 67.9189 143.848C67.9538 143.86 67.9919 143.857 68.0248 143.841C68.0577 143.824 68.0827 143.795 68.0943 143.76C68.0943 143.76 68.0943 143.76 68.0943 143.76C68.1371 143.632 68.1798 143.504 68.2235 143.377C68.2767 143.224 68.3308 143.072 68.3927 142.927C68.4233 142.857 68.4578 142.784 68.4918 142.735C68.499 142.705 68.5568 142.723 68.436 142.723C68.3557 142.677 68.4086 142.703 68.4082 142.731C68.4121 142.743 68.4166 142.76 68.42 142.774C68.4672 142.998 68.3288 143.26 68.1827 143.53C68.1102 143.669 68.0301 143.804 67.9847 143.994C67.9741 144.043 67.9661 144.097 67.9676 144.166C67.9804 144.248 67.9524 144.307 68.0996 144.541C68.1487 144.608 68.2105 144.687 68.3483 144.774C68.4931 144.868 68.7334 144.93 68.94 144.897C69.3561 144.814 69.4346 144.66 69.515 144.598C69.6527 144.454 69.6826 144.399 69.7294 144.333C69.8225 144.196 69.8646 144.113 69.8966 144.019C70.3629 142.393 70.5997 140.968 70.9127 139.462C70.9393 139.329 70.9658 139.196 70.9924 139.064Z" fill="black"/>
<path d="M31.7596 147.275C31.6011 147.064 31.3652 146.924 31.1036 146.887C30.8421 146.849 30.5765 146.918 30.3651 147.076C30.1538 147.235 30.014 147.47 29.9767 147.732C29.9393 147.994 30.0074 148.259 30.1659 148.471C30.3018 148.652 30.4381 148.834 30.5751 149.015C31.6718 150.423 32.6328 151.884 34.2875 153.165C34.2876 153.165 34.2878 153.165 34.2879 153.165C34.783 153.516 35.4089 153.84 36.1611 153.898C36.9141 153.965 37.666 153.688 38.1931 153.332C38.1942 153.331 38.1953 153.33 38.1964 153.33C39.0835 152.748 39.6511 151.891 40.0455 151.104C40.0459 151.103 40.0462 151.102 40.0466 151.101C40.3079 150.582 40.4207 150.011 40.4053 149.441C40.399 149.192 40.3695 148.941 40.3212 148.686C40.3041 148.599 40.2788 148.513 40.233 148.44C40.1872 148.367 40.1245 148.314 40.0499 148.289C39.9753 148.264 39.8932 148.269 39.8129 148.3C39.7327 148.331 39.6606 148.384 39.5948 148.444C39.5948 148.444 39.5948 148.444 39.5948 148.444C39.4032 148.619 39.2304 148.798 39.0748 148.976C38.7175 149.387 38.4516 149.787 38.2453 150.197C38.245 150.197 38.2447 150.198 38.2444 150.199C37.9268 150.836 37.5507 151.348 37.0886 151.65C37.088 151.651 37.0874 151.651 37.0868 151.651C36.4984 152.026 36.1135 151.992 35.4427 151.542C35.4426 151.541 35.4425 151.541 35.4424 151.541C34.2908 150.672 33.2134 149.187 32.1666 147.817C32.0312 147.637 31.8956 147.456 31.7596 147.275Z" fill="black"/>
<path d="M85.1013 65.2349C84.9376 65.0566 84.7099 64.9505 84.4681 64.9401C84.2263 64.9297 83.9902 65.0157 83.8119 65.1794C83.6335 65.343 83.5275 65.5707 83.517 65.8126C83.5066 66.0544 83.5927 66.2904 83.7563 66.4688C83.7563 66.4688 83.7563 66.4688 83.7563 66.4688C85.7875 68.6889 87.7184 70.9652 89.302 73.4558C90.2239 74.8968 91.0043 76.4242 91.7906 78.0008C91.7921 78.0038 91.7936 78.0068 91.7951 78.0098C93.4322 81.2689 93.6371 85.1587 94.5545 89.0146C94.556 89.0208 94.5575 89.0271 94.559 89.0333C95.6774 93.5656 95.7302 98.3341 95.9861 103.127C95.9861 103.129 95.9862 103.131 95.9863 103.133C96.2953 106.336 96.2863 109.344 96.339 112.5C96.3391 112.504 96.3391 112.507 96.3392 112.511C96.4643 121.943 96.4603 131.425 96.3428 140.86C96.3427 140.867 96.3426 140.875 96.3425 140.883C96.2636 147.303 95.5673 153.561 93.8368 159.777C93.8353 159.783 93.8338 159.79 93.8324 159.796C90.9333 169.775 87.3208 179.849 83.6186 189.693C83.6122 189.71 83.6057 189.727 83.5993 189.744C81.1193 195.66 77.7886 201.491 74.4822 207.147C74.4696 207.168 74.457 207.189 74.4445 207.21C71.8508 211.501 68.138 215.174 64.5186 218.923C64.4995 218.943 64.4804 218.963 64.4613 218.983C62.7386 220.762 60.7804 222.373 58.8396 224.084C57.6658 225.118 56.4993 226.192 55.3919 227.336C55.3729 227.356 55.3538 227.375 55.3347 227.395L55.4159 227.318C54.7914 227.856 54.1283 228.305 53.3961 228.79C53.3733 228.805 53.3508 228.821 53.3287 228.837C53.1097 229 52.9377 229.216 52.8091 229.478C52.7446 229.609 52.6911 229.752 52.6511 229.899C52.6322 229.972 52.6138 230.046 52.6142 230.115C52.617 230.149 52.6165 230.178 52.6659 230.211C52.6897 230.229 52.745 230.243 52.8171 230.316C52.8933 230.396 52.8903 230.492 52.8725 230.517C52.8222 230.476 52.7737 230.438 52.7267 230.41C52.6794 230.382 52.6346 230.368 52.5894 230.371C52.5441 230.374 52.5015 230.393 52.458 230.427C52.4149 230.46 52.3715 230.504 52.3266 230.551C52.3266 230.551 52.3266 230.551 52.3266 230.551C52.3109 230.61 52.3196 230.74 52.4241 230.841C52.5236 230.934 52.6147 230.953 52.6722 230.972C52.7905 231.003 52.8554 231.013 52.9229 231.026C53.0527 231.05 53.1576 231.065 53.2597 231.076C53.4623 231.097 53.6411 231.099 53.8092 231.085C54.1433 231.059 54.424 230.972 54.6589 230.832C54.6826 230.818 54.706 230.804 54.729 230.788C55.4676 230.3 56.249 229.731 56.9586 229.113L57.0398 229.036C57.0577 229.017 57.0756 228.999 57.0936 228.98C58.1378 227.895 59.2503 226.863 60.3979 225.846C62.2924 224.164 64.2966 222.512 66.1389 220.607C66.1579 220.587 66.1769 220.567 66.1959 220.548C69.7997 216.794 73.6108 213.067 76.4365 208.396C76.4492 208.375 76.462 208.354 76.4748 208.332C79.8311 202.562 83.1043 196.852 85.7357 190.56C85.7422 190.543 85.7486 190.526 85.7551 190.509C89.4815 180.549 93.0315 170.648 96.0187 160.323C96.0201 160.317 96.0215 160.311 96.0229 160.306C97.7613 154.07 98.5106 147.411 98.5805 140.917C98.5806 140.909 98.5807 140.901 98.5808 140.894C98.6987 131.418 98.7028 121.952 98.5772 112.474C98.5771 112.471 98.5771 112.467 98.577 112.463C98.5269 109.337 98.3362 106.072 98.01 103.028C98.0099 103.026 98.0098 103.024 98.0097 103.023C97.7109 98.2606 97.6572 93.3712 96.443 88.5773C96.4414 88.5708 96.4398 88.5643 96.4382 88.5578C95.5268 84.932 95.271 80.9105 93.4269 77.1922C93.4254 77.1892 93.4239 77.1862 93.4224 77.1832C92.6386 75.6116 91.8168 73.9994 90.8423 72.4766C89.1649 69.8406 87.1684 67.4955 85.1013 65.2349Z" fill="black"/>
<path d="M129.376 63.6235C129.152 63.4476 128.868 63.3679 128.585 63.4019C128.302 63.4359 128.044 63.5808 127.869 63.8047C127.693 64.0287 127.613 64.3133 127.647 64.5961C127.681 64.8788 127.826 65.1365 128.05 65.3123C128.05 65.3123 128.05 65.3123 128.05 65.3123C130.593 67.3059 132.944 69.4588 134.826 71.9965C137.031 74.945 138.663 78.3526 140.273 81.7966C140.28 81.8115 140.287 81.8265 140.294 81.8414C141.923 85.2781 142.702 89.0387 143.514 92.8842C143.518 92.9039 143.523 92.9237 143.527 92.9434C144.323 96.6815 144.686 100.592 145.442 104.501C145.446 104.525 145.451 104.548 145.455 104.572C146.143 108.748 145.791 113.471 146.082 118.013C146.083 118.037 146.084 118.061 146.086 118.085C146.473 127.618 146.69 137.521 145.541 146.648C145.537 146.667 145.533 146.681 145.53 146.69C144.336 150.848 143.651 155.106 143.185 159.345C143.181 159.383 143.177 159.421 143.172 159.459C142.79 163.699 141.197 167.58 140.093 172.043C140.086 172.072 140.08 172.102 140.073 172.131C139.254 175.808 137.925 179.424 136.571 183.057C136.559 183.088 136.548 183.118 136.537 183.149C135.462 186.06 134.145 188.903 132.997 191.919C132.984 191.954 132.971 191.989 132.957 192.024C131.684 195.433 130.479 198.825 129.099 202.126C129.083 202.164 129.068 202.202 129.052 202.24C127.691 205.545 127.1 208.922 126.156 212.045C126.144 212.083 126.132 212.122 126.12 212.16C125.266 214.889 123.239 217.438 121.658 220.363C121.64 220.396 121.622 220.429 121.605 220.461C119.779 224.087 116.745 226.68 114.348 230.702C114.342 230.715 114.335 230.728 114.329 230.74C113.039 233.213 111.942 235.715 110.743 238.122C110.174 239.269 109.584 240.394 108.95 241.483C108.942 241.496 108.935 241.509 108.927 241.523L108.921 241.532C108.49 242.291 108.024 242.946 107.469 243.596C107.458 243.608 107.448 243.62 107.438 243.632C107.137 243.995 106.939 244.368 106.78 244.739C106.604 245.087 106.559 245.566 105.879 245.756C106.141 246.424 107.221 246.567 107.864 246.332C108.549 246.121 109.049 245.731 109.412 245.32C109.424 245.306 109.436 245.292 109.448 245.278C110.094 244.527 110.678 243.653 111.154 242.805L111.148 242.814C111.156 242.8 111.164 242.786 111.172 242.773C111.842 241.616 112.454 240.438 113.036 239.257C114.26 236.779 115.349 234.281 116.582 231.918C116.587 231.909 116.592 231.899 116.597 231.889C118.454 228.683 121.862 225.574 123.844 221.667C123.86 221.637 123.876 221.607 123.892 221.577C125.33 218.864 127.438 216.327 128.545 212.905C128.557 212.864 128.57 212.822 128.583 212.781C129.575 209.456 130.169 206.152 131.384 203.216C131.4 203.177 131.417 203.138 131.433 203.099C132.843 199.718 134.06 196.282 135.318 192.908C135.33 192.875 135.343 192.842 135.356 192.808C136.447 189.925 137.78 187.034 138.887 184.022C138.898 183.991 138.909 183.96 138.921 183.93C140.272 180.281 141.629 176.578 142.498 172.662C142.503 172.636 142.509 172.609 142.515 172.583C143.488 168.567 145.225 164.245 145.626 159.725C145.63 159.688 145.634 159.651 145.638 159.614C146.09 155.455 146.75 151.336 147.883 147.363C147.896 147.32 147.907 147.277 147.918 147.233C149.19 137.182 148.866 127.705 148.47 117.97C148.469 117.947 148.467 117.923 148.466 117.899C148.154 113.369 148.511 108.944 147.716 104.131C147.712 104.108 147.707 104.086 147.703 104.063C146.948 100.29 146.577 96.3865 145.721 92.4686C145.717 92.4488 145.713 92.4291 145.708 92.4095C144.877 88.596 143.986 84.6158 142.242 80.9372C142.235 80.9221 142.228 80.907 142.221 80.8919C140.595 77.4205 138.923 73.8955 136.546 70.7108C134.516 67.9734 131.993 65.674 129.376 63.6235Z" fill="black"/>
<path d="M176.826 83.6172C176.767 83.3357 176.597 83.0895 176.356 82.9326C176.115 82.7758 175.821 82.7212 175.54 82.7809C175.258 82.8406 175.012 83.0096 174.855 83.2509C174.698 83.4921 174.644 83.7858 174.703 84.0673C174.703 84.0673 174.703 84.0673 174.703 84.0673C175.253 86.669 175.891 89.2599 176.617 91.8147C177.351 94.4189 178.166 96.9545 178.741 99.5157C178.741 99.5182 178.742 99.5206 178.742 99.5231C179.814 104.012 179.975 108.581 180.29 113.32C180.29 113.323 180.291 113.326 180.291 113.33C180.703 117.788 182.045 121.814 182.341 125.896C182.342 125.908 182.343 125.92 182.344 125.932C182.731 129.163 182.647 132.384 182.714 135.669C182.714 135.682 182.715 135.694 182.715 135.707C182.839 146.52 182.835 157.382 182.716 168.194C182.716 168.198 182.716 168.203 182.716 168.207C182.657 175.235 181.879 182.019 179.001 188.421C178.999 188.425 178.998 188.428 178.997 188.431C177.231 192.877 175.177 197.182 173.235 201.673C173.235 201.673 173.235 201.673 173.235 201.674C171.788 205.109 170.154 208.501 168.438 211.835C168.436 211.837 168.435 211.84 168.434 211.842C166.97 214.679 165.432 217.495 163.94 220.356C163.937 220.361 163.935 220.365 163.932 220.37C162.691 222.781 161.116 224.938 159.305 227.019C158.58 227.859 157.829 228.694 157.076 229.535C157.072 229.541 157.067 229.546 157.063 229.551L157.045 229.571C156.483 230.232 156.486 231.354 156.046 231.554C156.044 231.554 156.042 231.555 156.041 231.556C155.757 231.696 155.144 231.534 154.515 231.315C154.356 231.262 154.181 231.274 154.031 231.35C153.88 231.425 153.766 231.557 153.713 231.717C153.659 231.876 153.672 232.051 153.747 232.201C153.822 232.352 153.954 232.466 154.114 232.52C154.114 232.52 154.114 232.52 154.114 232.52C154.744 232.701 155.51 233.097 156.526 232.729C156.53 232.727 156.535 232.725 156.539 232.723C157.601 232.185 158.452 231.782 158.988 231.24L158.971 231.26C158.975 231.255 158.98 231.25 158.985 231.244C159.738 230.402 160.496 229.554 161.243 228.681C163.104 226.529 164.841 224.117 166.161 221.53C166.164 221.525 166.166 221.521 166.169 221.516C167.64 218.681 169.176 215.858 170.655 212.988C170.656 212.986 170.657 212.983 170.659 212.981C172.399 209.592 174.048 206.167 175.534 202.635C175.534 202.635 175.534 202.635 175.534 202.634C177.415 198.279 179.514 193.87 181.306 189.352C181.307 189.349 181.309 189.346 181.31 189.343C184.269 182.811 185.159 175.301 185.192 168.24C185.192 168.236 185.192 168.231 185.192 168.227C185.31 157.375 185.313 146.528 185.187 135.672C185.187 135.659 185.187 135.646 185.187 135.634C185.118 132.346 185.053 129.02 184.642 125.738C184.641 125.73 184.64 125.722 184.639 125.714C184.28 121.306 182.913 117.165 182.54 113.154C182.54 113.151 182.539 113.148 182.539 113.145C182.21 108.543 181.972 103.694 180.859 99.0439C180.858 99.0413 180.858 99.0388 180.857 99.0362C180.255 96.358 179.425 93.7816 178.705 91.2241C177.991 88.7093 177.368 86.1786 176.826 83.6172Z" fill="black"/>
<path d="M110.434 60.325C110.62 60.585 110.901 60.7606 111.217 60.8131C111.532 60.8655 111.855 60.7906 112.115 60.6048C112.375 60.419 112.551 60.1375 112.603 59.8222C112.656 59.5069 112.581 59.1837 112.395 58.9237C112.395 58.9237 112.395 58.9237 112.395 58.9237C110.667 56.5048 108.99 54.059 107.405 51.5607C105.969 49.2948 104.607 46.9891 103.414 44.6209C103.405 44.6018 103.395 44.5828 103.386 44.5638C101.748 41.2871 100.287 37.8889 98.8568 34.4752C98.8427 34.4417 98.8288 34.4082 98.8148 34.3748C96.9641 29.24 97.8781 22.8108 97.8624 16.8278C97.8636 16.7772 97.8647 16.7264 97.8659 16.6755C97.8115 12.6367 101.884 10.5062 105.841 8.17275C105.884 8.14452 105.928 8.11633 105.971 8.08817C108.616 6.40878 111.656 5.16736 114.707 4.02302C114.739 4.01123 114.772 3.99935 114.806 3.98742C121.835 2.21615 129.945 2.19971 137.474 2.69376C137.494 2.69545 137.514 2.69718 137.534 2.69894C141.097 3.00908 144.486 4.66765 147.496 6.84038C147.504 6.84621 147.512 6.85204 147.52 6.85788C150.678 9.05131 152.103 12.8879 153.043 16.8717C153.044 16.8769 153.046 16.882 153.047 16.8872C154.332 21.1851 152.218 24.8001 149.211 28.4597C149.179 28.5032 149.147 28.5467 149.115 28.5903C145.926 32.9356 142.748 37.2913 139.525 41.5913C139.507 41.6159 139.488 41.6406 139.469 41.6656C135.196 47.043 130.222 52.1566 125.047 56.735L125.123 56.6751C125.117 56.6796 125.11 56.6841 125.104 56.6886C124.835 56.8865 124.574 57.0914 124.32 57.3008C122.595 58.7323 121.134 60.3585 119.54 61.8302C119.539 61.8314 119.537 61.8325 119.536 61.8337L119.648 61.7625C119.158 62.1184 118.552 62.3604 117.694 62.2346C117.658 62.2309 117.618 62.2433 117.585 62.2648C117.551 62.2866 117.527 62.3156 117.515 62.3499C117.504 62.3842 117.506 62.4221 117.52 62.4597C117.534 62.497 117.558 62.5309 117.589 62.5496C117.589 62.5496 117.589 62.5496 117.589 62.5496C118.209 62.9938 119.34 63.4574 120.279 63.0009L120.391 62.9297C120.392 62.9288 120.393 62.9278 120.395 62.9269C122.249 61.7124 124.078 60.4589 125.796 59.1969C126.048 59.0128 126.297 58.8294 126.543 58.6487C126.549 58.6446 126.555 58.6405 126.56 58.6364L126.635 58.5765C132.002 53.8185 136.896 48.7698 141.387 43.1132C141.407 43.0862 141.427 43.0593 141.447 43.0327C144.682 38.7067 147.855 34.3485 151.04 30.0013C151.072 29.9577 151.104 29.9141 151.136 29.8706C153.94 26.6368 157.011 21.2363 155.355 16.3243C155.354 16.3184 155.352 16.3124 155.351 16.3065C154.402 12.267 152.779 7.61781 148.915 4.92954C148.905 4.92251 148.896 4.9155 148.886 4.90849C145.679 2.59313 141.909 0.679107 137.748 0.308179C137.725 0.306097 137.702 0.304061 137.679 0.302071C129.759 -0.185304 122.059 -0.308438 114.001 1.70517C113.955 1.72137 113.91 1.73777 113.865 1.75441C110.736 2.92962 107.607 4.18468 104.658 6.04833C104.609 6.07985 104.561 6.11148 104.512 6.14322C101.126 8.18883 95.4181 10.8975 95.431 16.6204C95.4298 16.6712 95.4287 16.7218 95.4275 16.7723C95.4949 22.831 94.3593 28.8783 96.5787 35.3103C96.5928 35.3439 96.6069 35.3776 96.621 35.4113C98.0641 38.8466 99.5477 42.276 101.231 45.6442C101.241 45.664 101.251 45.6839 101.261 45.7038C102.506 48.1741 103.905 50.539 105.37 52.8515C106.987 55.4003 108.687 57.8791 110.434 60.325Z" fill="black"/>
<path d="M123.283 60.0296C123.023 60.1852 122.836 60.4376 122.762 60.7312C122.689 61.0248 122.735 61.3355 122.891 61.5951C123.046 61.8546 123.299 62.0417 123.592 62.1152C123.886 62.1887 124.197 62.1426 124.456 61.9869C124.456 61.9869 124.456 61.9869 124.456 61.9869C127.728 60.0229 130.998 58.0309 134.195 55.9156C135.428 55.1014 136.645 54.2725 137.857 53.4414C137.863 53.437 137.87 53.4326 137.876 53.4281C144.163 49.0697 150.238 44.5035 156.331 39.9453C156.346 39.9341 156.361 39.9228 156.376 39.9116C165.105 34.7958 175.98 32.2145 186.086 29.0496C186.115 29.0411 186.144 29.0326 186.173 29.0241C193.4 26.8876 201.098 26.8901 208.856 26.2872C208.883 26.2849 208.909 26.2826 208.935 26.2803C212.237 26.0028 215.838 26.3811 218.393 28.0812C218.412 28.095 218.432 28.1088 218.451 28.1226C220.334 29.5053 221.24 32.3675 222.044 35.0407C222.051 35.0666 222.059 35.0926 222.066 35.1186C223.268 39.1252 221.709 43.5979 219.075 46.9924C219.067 47.0026 219.059 47.0128 219.052 47.023C215.073 52.2121 209.183 55.3512 202.967 57.9931C202.952 58.0004 202.936 58.0077 202.92 58.015C199.238 59.7254 195.721 61.7192 192.197 63.5397C192.187 63.5448 192.177 63.55 192.167 63.5551C185.398 66.9385 177.196 66.9835 169.376 67.896C169.367 67.8969 169.358 67.8978 169.349 67.8987C159.594 68.8713 149.831 68.6813 140.043 67.5304L139.982 67.5263C139.975 67.526 139.969 67.5258 139.962 67.5255C138.617 67.4721 137.282 67.5427 135.95 67.6465C133.735 67.8228 131.532 68.0879 129.321 68.1697C129.319 68.1698 129.317 68.1699 129.315 68.17C127.706 68.2397 126.03 68.3249 124.424 68.7639C124.279 68.8002 124.154 68.8928 124.077 69.0211C124 69.1495 123.977 69.3032 124.014 69.4484C124.05 69.5937 124.142 69.7185 124.271 69.7955C124.399 69.8726 124.553 69.8954 124.698 69.8591C124.698 69.8591 124.698 69.8591 124.698 69.8591C126.201 69.4472 127.761 69.3678 129.359 69.298C129.361 69.2979 129.363 69.2979 129.365 69.2978C131.546 69.2178 133.75 69.4572 135.936 69.6599C137.25 69.7838 138.566 69.8957 139.863 69.9473C139.87 69.9476 139.876 69.9478 139.883 69.9481L139.822 69.9441C149.611 71.0987 159.69 71.2693 169.582 70.2592C169.591 70.2583 169.6 70.2574 169.609 70.2565C177.425 69.301 185.64 69.3761 193.232 65.6278C193.243 65.6221 193.254 65.6164 193.265 65.6107C196.856 63.7465 200.313 61.7793 203.9 60.1077C203.915 60.1006 203.93 60.0935 203.945 60.0863C210.052 57.4849 216.553 54.0717 220.853 48.423C220.862 48.4115 220.871 48.4 220.879 48.3885C223.8 44.609 225.711 39.4469 224.245 34.4834C224.237 34.4565 224.23 34.4296 224.222 34.4027C223.334 31.6493 222.597 28.4942 219.772 26.2914C219.745 26.2721 219.718 26.253 219.691 26.234C216.28 24.015 212.409 23.7405 208.737 24.0097C208.712 24.0119 208.686 24.0141 208.661 24.0163C201.083 24.6108 193.162 24.5826 185.527 26.8291C185.498 26.8376 185.469 26.8462 185.44 26.8547C175.184 30.1015 164.776 32.3487 154.994 38.0699C154.979 38.0811 154.964 38.0924 154.949 38.1036C148.868 42.6532 142.793 47.2431 136.585 51.5459C136.579 51.5503 136.572 51.5548 136.566 51.5592C135.357 52.388 134.153 53.2083 132.937 54.0117C129.786 56.0964 126.543 58.0725 123.283 60.0296Z" fill="black"/>
<path d="M33.5758 87.4934C33.6854 87.7461 33.8908 87.945 34.147 88.0462C34.4032 88.1475 34.6891 88.1428 34.9418 88.0333C35.1945 87.9237 35.3934 87.7183 35.4946 87.4621C35.5959 87.206 35.5912 86.9201 35.4817 86.6673C35.4817 86.6673 35.4817 86.6673 35.4817 86.6673C34.8778 85.2741 34.2852 83.8868 33.7008 82.4918C32.3721 79.3336 31.1258 76.1518 29.876 72.9405C29.8671 72.9178 29.8582 72.895 29.8492 72.8723C28.6405 69.7928 26.8351 67.0854 25.0947 64.4633C25.0732 64.431 25.0517 64.3986 25.0302 64.3663C23.2183 61.6427 21.4079 58.9182 19.5934 56.1964C19.5628 56.1504 19.5321 56.1045 19.5013 56.0585C19.3448 55.8247 19.1911 55.5978 19.0577 55.3843C18.9914 55.2781 18.9302 55.1747 18.8842 55.0869C18.839 55.0106 18.8082 54.894 18.8348 55.0049C18.835 55.0533 18.8845 55.1624 18.7666 55.4569C18.6834 55.6608 18.4622 55.7616 18.476 55.7491C18.4711 55.7488 18.5672 55.731 18.6796 55.7266C18.9126 55.7148 19.2299 55.7257 19.5619 55.7244C20.2268 55.719 21.0328 55.6853 21.8461 55.2859C21.8757 55.2712 21.905 55.2562 21.9342 55.241C24.1096 54.0937 24.7717 51.7414 25.0857 49.9094C25.0894 49.8872 25.0931 49.865 25.0967 49.8428C25.4914 47.1571 25.4629 44.4349 24.1706 41.7189C24.1631 41.7051 24.1555 41.6914 24.1479 41.6776C20.9543 37.032 15.7133 38.0881 11.7201 37.8216C11.7052 37.8216 11.6903 37.8216 11.6755 37.8218C9.07957 37.7724 7.52984 40.165 6.74794 41.7139C6.7319 41.7436 6.71615 41.7735 6.70068 41.8034C5.65145 43.96 5.84483 46.1515 6.16345 48.1521L6.22476 48.504L6.48982 48.7455C6.50646 48.7606 6.52311 48.7758 6.53978 48.7909C8.87657 50.9027 11.4985 52.7232 14.4299 54.0099C14.5323 54.0546 14.6355 54.0987 14.7384 54.1417L14.8116 54.1692C14.8176 54.1711 14.8236 54.1731 14.8296 54.1751C16.3438 54.6973 17.8525 54.4626 19.2978 53.9645C19.3193 53.9568 19.3401 53.9461 19.3561 53.9302C19.3721 53.9144 19.3821 53.8947 19.3838 53.8738C19.3856 53.8529 19.3791 53.8319 19.366 53.8135C19.3529 53.7952 19.3341 53.7811 19.3143 53.7699C19.3143 53.7699 19.3143 53.7699 19.3143 53.7699C17.9661 53.0055 16.6403 52.5912 15.4943 52.1805C15.4884 52.1785 15.4825 52.1765 15.4765 52.1745L15.5497 52.202C15.4564 52.163 15.3627 52.123 15.2697 52.0824C12.6033 50.9145 10.1354 49.218 7.9444 47.2409C7.92876 47.2267 7.91313 47.2125 7.89752 47.1983L8.22388 47.7917C7.91529 46.0189 7.85916 44.116 8.55066 42.7586C8.56045 42.7397 8.57038 42.7209 8.58043 42.7022C9.41034 41.0924 10.364 39.8771 11.6921 39.9243C11.7006 39.9242 11.7092 39.9242 11.7178 39.9242C15.6592 40.0224 20.6187 39.8102 22.2804 42.7118C22.2853 42.7207 22.2902 42.7297 22.2951 42.7387C23.2092 44.6119 23.36 47.2098 22.9879 49.4984C22.9848 49.5177 22.9816 49.537 22.9783 49.5564C22.7094 51.2219 22.1163 52.7773 20.9471 53.357C20.9305 53.3657 20.9138 53.3743 20.8969 53.3827C20.5885 53.542 20.1167 53.6075 19.5453 53.6111C19.257 53.616 18.9504 53.604 18.5631 53.6242C18.3672 53.6377 18.1484 53.6509 17.847 53.7423C17.567 53.8182 17.0576 54.0998 16.8495 54.5956C16.6904 54.9833 16.7452 55.2007 16.7614 55.3481C16.8392 55.738 16.9332 55.8775 17.0153 56.0523C17.0993 56.2155 17.1808 56.3543 17.2622 56.4886C17.4245 56.755 17.5848 56.9968 17.7408 57.2322C17.7714 57.2783 17.802 57.3243 17.8326 57.3702C19.6471 60.092 21.4658 62.811 23.283 65.531C23.3046 65.5633 23.3261 65.5956 23.3476 65.6278C25.0951 68.2443 26.8174 70.8257 27.9158 73.6316C27.9247 73.6542 27.9336 73.6768 27.9425 73.6994C29.1852 76.8927 30.4491 80.1194 31.785 83.2943C32.3731 84.6983 32.9691 86.0934 33.5758 87.4934Z" fill="black"/>
<path d="M57.33 88.32C57.233 88.5335 57.2248 88.7768 57.3071 88.9964C57.3895 89.216 57.5557 89.3938 57.7692 89.4909C57.9827 89.5879 58.226 89.5962 58.4456 89.5138C58.6652 89.4314 58.8431 89.2652 58.9401 89.0517C58.9401 89.0517 58.9401 89.0517 58.9401 89.0517C59.5394 87.7328 60.1145 86.4083 60.6595 85.0678C62.5187 80.5416 63.9443 75.7814 64.7534 70.9442C64.7579 70.9183 64.7624 70.8925 64.7668 70.8667C65.7748 65.2318 68.792 60.1087 71.2451 54.6625C71.2583 54.6323 71.2715 54.6021 71.2846 54.572C72.1 53.1865 75.1493 52.2155 77.2465 50.8618C77.2569 50.8556 77.2672 50.8495 77.2775 50.8433C80.433 48.9176 81.3769 45.3691 82.3309 42.5171C82.3314 42.5158 82.3318 42.5146 82.3322 42.5133C82.6677 41.5953 82.1845 40.5231 81.5941 40.0422C81.003 39.52 80.3674 39.2783 79.7585 39.1043C79.7533 39.1029 79.7482 39.1014 79.743 39.1C76.1431 38.2029 72.2955 38.0573 68.7279 40.3033C68.7266 40.3044 68.7253 40.3055 68.7239 40.3066C65.7131 42.8461 65.4845 46.8584 65.8097 50.1376C65.8102 50.1424 65.8108 50.1472 65.8113 50.1519C65.8969 51.5336 67.0446 52.7512 67.9517 53.2883C67.9594 53.2934 67.967 53.2986 67.9747 53.3037C68.429 53.6089 68.9793 53.8197 69.5146 53.9344C69.9232 54.0242 70.3205 54.0683 70.7014 54.1163C70.7059 54.1168 70.7104 54.1174 70.7149 54.118C71.8793 54.2563 72.9695 54.2365 74.0497 54.2407C74.2735 54.2407 74.4881 54.1518 74.6463 53.9935C74.8045 53.8353 74.8934 53.6207 74.8934 53.3969C74.8934 53.1731 74.8045 52.9585 74.6463 52.8003C74.4881 52.642 74.2735 52.5532 74.0497 52.5532C72.9754 52.5508 71.9039 52.562 70.9258 52.4437C70.922 52.4432 70.9183 52.4428 70.9145 52.4423C70.5966 52.4012 70.2985 52.3167 70.032 52.2044C69.6799 52.0568 69.3861 51.8642 69.0718 51.6549C69.0665 51.6513 69.0612 51.6478 69.0559 51.6442C68.237 51.1103 67.8371 50.6527 67.7529 49.9314C67.7526 49.9289 67.7523 49.9263 67.752 49.9237C67.4118 46.9165 67.7775 43.5427 69.9374 41.7919C69.938 41.7914 69.9385 41.7909 69.9391 41.7905C72.3258 40.2503 76.1508 40.0996 79.2337 40.9572C79.2375 40.9583 79.2412 40.9593 79.245 40.9603C79.6841 41.08 80.0853 41.2625 80.3156 41.4679C80.5496 41.6875 80.5596 41.793 80.5263 41.9308C80.5259 41.9321 80.5255 41.9334 80.5251 41.9347C79.6082 44.864 78.6742 47.8807 76.3366 49.2802C76.3269 49.2861 76.3171 49.292 76.3074 49.2979C75.2475 49.9419 74.1473 50.5145 73.0081 51.1137C71.9144 51.7696 70.5442 52.1658 69.6532 53.8617C69.6406 53.8906 69.628 53.9196 69.6153 53.9486C67.2495 59.2455 64.1232 64.4897 63.0241 70.5656C63.0197 70.5909 63.0153 70.6162 63.011 70.6415C62.2177 75.373 60.8458 79.9545 59.0211 84.4018C58.4866 85.7164 57.921 87.0195 57.33 88.32Z" fill="black"/>
</svg>
